<svg xmlns="http://www.w3.org/2000/svg" xmlns:xlink="http://www.w3.org/1999/xlink" width="1080" zoomAndPan="magnify" viewBox="0 0 810 809.999993" height="1080" preserveAspectRatio="xMidYMid meet" version="1.0"><defs><clipPath id="6355a56bb8"><path d="M 243.589844 345 L 465 345 L 465 567 L 243.589844 567 Z M 243.589844 345 " clip-rule="nonzero"/></clipPath><clipPath id="db8f33d659"><path d="M 243.589844 243 L 410 243 L 410 409 L 243.589844 409 Z M 243.589844 243 " clip-rule="nonzero"/></clipPath></defs><path fill="#54afe5" d="M 441.71875 462.070312 C 438.8125 462.070312 436.078125 462.785156 433.589844 464.042969 L 433.589844 464.027344 L 433.535156 464.070312 C 431.761719 464.976562 430.140625 466.164062 428.6875 467.589844 C 414.601562 476.3125 407.671875 466.558594 405.789062 463.160156 L 405.789062 404.886719 L 348.648438 404.886719 C 348.648438 404.886719 332.742188 398.25 343.132812 381.40625 C 344.558594 379.964844 345.742188 378.332031 346.652344 376.554688 L 346.695312 376.5 L 346.679688 376.5 C 347.9375 374.011719 348.648438 371.257812 348.648438 368.363281 C 348.648438 357.433594 338.761719 348.574219 326.558594 348.574219 C 314.367188 348.574219 304.46875 357.433594 304.46875 368.363281 C 304.46875 371.257812 305.191406 374.011719 306.4375 376.5 L 306.476562 376.554688 C 307.386719 378.332031 308.558594 379.964844 309.984375 381.40625 C 320.386719 398.25 304.46875 404.886719 304.46875 404.886719 L 247.332031 404.886719 L 247.332031 563.476562 L 405.796875 563.476562 L 405.78125 505.207031 C 407.667969 501.808594 414.59375 492.050781 428.683594 500.773438 C 430.132812 502.199219 431.753906 503.375 433.527344 504.28125 L 433.582031 504.324219 C 436.070312 505.582031 438.804688 506.296875 441.710938 506.296875 C 452.628906 506.296875 461.484375 496.386719 461.484375 484.183594 C 461.484375 471.964844 452.628906 462.070312 441.710938 462.070312 " fill-opacity="1" fill-rule="nonzero"/><g clip-path="url(#6355a56bb8)"><path fill="#040505" d="M 441.71875 462.070312 L 441.71875 458.574219 C 438.242188 458.574219 434.945312 459.441406 432.011719 460.925781 L 433.589844 464.042969 L 436.859375 462.8125 L 436.859375 462.796875 C 436.46875 461.761719 435.601562 460.964844 434.539062 460.671875 C 433.464844 460.363281 432.320312 460.589844 431.441406 461.273438 L 431.382812 461.316406 L 433.535156 464.070312 L 431.957031 460.964844 C 429.835938 462.027344 427.921875 463.441406 426.246094 465.101562 L 428.6875 467.589844 L 426.847656 464.613281 C 423.117188 466.921875 420.242188 467.621094 418.0625 467.632812 C 416.734375 467.621094 415.632812 467.382812 414.640625 466.976562 C 413.160156 466.375 411.917969 465.398438 410.925781 464.335938 C 409.9375 463.285156 409.238281 462.183594 408.847656 461.46875 L 405.789062 463.160156 L 409.28125 463.160156 L 409.28125 404.886719 C 409.28125 403.964844 408.902344 403.058594 408.261719 402.414062 C 407.605469 401.757812 406.695312 401.378906 405.789062 401.378906 L 348.648438 401.378906 L 348.648438 404.886719 L 349.988281 401.660156 L 349.445312 402.960938 L 350.015625 401.660156 L 349.988281 401.660156 L 349.445312 402.960938 L 350.015625 401.660156 C 349.976562 401.660156 348.046875 400.777344 346.316406 399.128906 C 345.449219 398.304688 344.640625 397.3125 344.054688 396.152344 C 343.480469 394.976562 343.105469 393.679688 343.105469 392.042969 C 343.105469 389.863281 343.804688 386.984375 346.105469 383.25 L 343.132812 381.40625 L 345.617188 383.867188 C 347.28125 382.175781 348.691406 380.246094 349.75 378.148438 L 346.652344 376.554688 L 349.375 378.734375 L 349.417969 378.679688 C 350.074219 377.855469 350.324219 376.777344 350.101562 375.757812 C 349.878906 374.710938 349.191406 373.84375 348.257812 373.382812 L 348.242188 373.367188 L 346.679688 376.5 L 349.792969 378.078125 C 351.273438 375.144531 352.140625 371.84375 352.140625 368.363281 C 352.140625 361.824219 349.164062 355.910156 344.515625 351.773438 C 339.851562 347.59375 333.511719 345.078125 326.558594 345.078125 C 319.617188 345.078125 313.265625 347.59375 308.613281 351.773438 C 303.964844 355.910156 300.976562 361.824219 300.976562 368.363281 C 300.976562 371.84375 301.839844 375.144531 303.320312 378.078125 L 306.4375 376.5 L 305.023438 373.300781 L 305.011719 373.3125 C 304.019531 373.746094 303.292969 374.613281 303.042969 375.675781 C 302.777344 376.738281 303.027344 377.828125 303.699219 378.679688 L 303.742188 378.734375 L 306.476562 376.554688 L 303.363281 378.148438 C 304.4375 380.246094 305.835938 382.175781 307.496094 383.851562 L 309.984375 381.40625 L 307.007812 383.25 C 309.328125 386.984375 310.023438 389.863281 310.023438 392.042969 C 310.023438 393.734375 309.621094 395.074219 309.003906 396.265625 C 308.082031 398.039062 306.589844 399.4375 305.289062 400.375 C 304.648438 400.835938 304.0625 401.171875 303.671875 401.394531 C 303.460938 401.492188 303.308594 401.5625 303.210938 401.617188 L 303.113281 401.660156 L 303.867188 403.421875 L 303.125 401.660156 L 303.113281 401.660156 L 303.867188 403.421875 L 303.125 401.660156 L 304.46875 404.886719 L 304.46875 401.378906 L 247.332031 401.378906 C 246.410156 401.378906 245.519531 401.757812 244.863281 402.414062 C 244.214844 403.058594 243.84375 403.964844 243.84375 404.886719 L 243.84375 563.476562 C 243.84375 564.398438 244.214844 565.308594 244.867188 565.953125 C 245.519531 566.609375 246.417969 566.972656 247.332031 566.972656 L 405.796875 566.972656 C 406.6875 566.972656 407.597656 566.609375 408.253906 565.953125 C 408.894531 565.308594 409.273438 564.398438 409.273438 563.476562 L 409.273438 505.207031 L 405.78125 505.207031 L 408.839844 506.894531 C 409.355469 505.945312 410.445312 504.296875 411.996094 502.996094 C 412.761719 502.355469 413.644531 501.78125 414.632812 501.390625 C 415.625 500.984375 416.730469 500.730469 418.054688 500.730469 C 420.234375 500.730469 423.109375 501.429688 426.839844 503.75 L 428.683594 500.773438 L 426.238281 503.261719 C 427.914062 504.925781 429.839844 506.324219 431.949219 507.398438 L 433.527344 504.28125 L 431.292969 506.980469 L 431.347656 507.023438 C 432.230469 507.75 433.386719 508 434.476562 507.707031 C 435.566406 507.425781 436.460938 506.617188 436.851562 505.554688 L 433.582031 504.324219 L 432.003906 507.441406 C 434.9375 508.921875 438.234375 509.789062 441.710938 509.789062 C 448.246094 509.789062 454.136719 506.796875 458.300781 502.144531 C 462.460938 497.488281 464.972656 491.128906 464.972656 484.183594 C 464.972656 477.222656 462.460938 470.875 458.300781 466.207031 C 454.136719 461.554688 448.246094 458.574219 441.710938 458.574219 L 441.710938 465.566406 C 446.09375 465.566406 450.089844 467.535156 453.089844 470.875 C 456.078125 474.21875 457.992188 478.914062 457.992188 484.183594 C 457.992188 489.4375 456.078125 494.148438 453.089844 497.488281 C 450.089844 500.828125 446.09375 502.800781 441.710938 502.800781 C 439.394531 502.800781 437.199219 502.226562 435.160156 501.207031 C 434.269531 500.761719 433.25 500.703125 432.3125 501.066406 C 431.390625 501.429688 430.664062 502.15625 430.316406 503.09375 L 430.316406 503.109375 L 433.582031 504.324219 L 435.816406 501.640625 L 435.761719 501.597656 C 435.566406 501.429688 435.34375 501.292969 435.121094 501.179688 C 433.667969 500.4375 432.328125 499.460938 431.125 498.285156 C 430.945312 498.105469 430.734375 497.9375 430.511719 497.796875 C 425.960938 494.972656 421.785156 493.742188 418.054688 493.742188 C 415.820312 493.742188 413.78125 494.191406 412.007812 494.917969 C 409.355469 495.992188 407.332031 497.644531 405.824219 499.238281 C 404.328125 500.859375 403.324219 502.421875 402.722656 503.515625 C 402.445312 504.03125 402.289062 504.617188 402.289062 505.203125 L 402.289062 559.984375 L 250.824219 559.984375 L 250.824219 408.367188 L 304.460938 408.382812 C 304.933594 408.382812 305.382812 408.285156 305.800781 408.101562 C 306.023438 408.003906 308.605469 406.929688 311.34375 404.441406 C 312.710938 403.183594 314.109375 401.5625 315.183594 399.492188 C 316.273438 397.425781 317 394.894531 317 392.042969 C 317 388.3125 315.769531 384.117188 312.949219 379.574219 C 312.808594 379.351562 312.644531 379.140625 312.460938 378.960938 C 311.289062 377.757812 310.3125 376.414062 309.570312 374.960938 C 309.457031 374.738281 309.347656 374.570312 309.195312 374.375 L 309.152344 374.320312 L 306.429688 376.5 L 307.839844 379.699219 L 307.851562 379.6875 C 308.71875 379.296875 309.402344 378.566406 309.722656 377.671875 C 310.046875 376.765625 309.976562 375.773438 309.542969 374.921875 C 308.523438 372.878906 307.949219 370.683594 307.949219 368.363281 C 307.949219 363.976562 309.917969 359.976562 313.257812 356.972656 C 316.59375 353.980469 321.300781 352.066406 326.550781 352.066406 C 331.816406 352.066406 336.507812 353.980469 339.84375 356.972656 C 343.179688 359.976562 345.152344 363.976562 345.152344 368.363281 C 345.152344 370.683594 344.578125 372.878906 343.558594 374.921875 C 343.140625 375.757812 343.070312 376.710938 343.363281 377.589844 C 343.65625 378.484375 344.285156 379.195312 345.109375 379.617188 L 345.121094 379.628906 L 346.6875 376.5 L 343.964844 374.320312 L 343.90625 374.375 C 343.753906 374.570312 343.640625 374.738281 343.53125 374.960938 C 342.789062 376.414062 341.828125 377.757812 340.640625 378.945312 C 340.457031 379.128906 340.292969 379.351562 340.164062 379.574219 C 337.34375 384.117188 336.101562 388.3125 336.117188 392.042969 C 336.101562 394.894531 336.84375 397.425781 337.917969 399.492188 C 339.535156 402.59375 341.867188 404.691406 343.753906 406.046875 C 345.640625 407.402344 347.132812 408.03125 347.300781 408.101562 C 347.734375 408.285156 348.179688 408.382812 348.640625 408.382812 L 402.289062 408.382812 L 402.289062 463.160156 C 402.289062 463.746094 402.445312 464.335938 402.722656 464.851562 C 403.535156 466.292969 405.027344 468.625 407.511719 470.707031 C 408.742188 471.757812 410.25 472.734375 412.007812 473.449219 C 413.78125 474.175781 415.820312 474.621094 418.054688 474.621094 C 421.785156 474.621094 425.960938 473.378906 430.511719 470.554688 C 430.734375 470.429688 430.945312 470.261719 431.125 470.078125 C 432.328125 468.890625 433.667969 467.914062 435.121094 467.1875 C 435.289062 467.089844 435.511719 466.960938 435.679688 466.835938 L 435.734375 466.78125 L 433.582031 464.027344 L 430.316406 465.257812 L 430.316406 465.269531 C 430.664062 466.207031 431.390625 466.933594 432.3125 467.296875 C 433.25 467.660156 434.269531 467.605469 435.160156 467.15625 C 437.199219 466.136719 439.394531 465.566406 441.710938 465.566406 L 441.710938 462.070312 " fill-opacity="1" fill-rule="nonzero"/></g><path fill="#f1487a" d="M 403.75 246.617188 L 403.75 304.894531 C 401.863281 308.289062 394.9375 318.046875 380.847656 309.335938 C 379.410156 307.910156 377.777344 306.722656 376.003906 305.816406 L 375.949219 305.773438 L 375.949219 305.789062 C 373.460938 304.527344 370.710938 303.800781 367.820312 303.800781 C 356.902344 303.800781 348.046875 313.710938 348.046875 325.914062 C 348.046875 338.144531 356.902344 348.027344 367.820312 348.027344 C 370.710938 348.027344 373.460938 347.316406 375.949219 346.070312 L 376.003906 346.027344 C 377.777344 345.132812 379.410156 343.933594 380.847656 342.507812 C 394.9375 333.796875 401.863281 343.539062 403.75 346.949219 L 403.75 405.222656 L 460.890625 405.222656 C 460.890625 405.222656 476.808594 411.847656 466.40625 428.691406 C 464.980469 430.144531 463.792969 431.765625 462.886719 433.542969 L 462.84375 433.597656 L 462.859375 433.613281 C 461.601562 436.085938 460.890625 438.839844 460.890625 441.746094 C 460.890625 452.664062 470.777344 461.523438 482.980469 461.523438 C 495.183594 461.523438 505.070312 452.664062 505.070312 441.746094 C 505.070312 438.839844 504.34375 436.085938 503.101562 433.613281 L 503.101562 433.597656 L 503.0625 433.542969 C 502.167969 431.765625 500.980469 430.144531 499.554688 428.691406 C 489.152344 411.847656 505.070312 405.222656 505.070312 405.222656 L 562.199219 405.222656 L 562.199219 246.621094 L 403.75 246.617188 " fill-opacity="1" fill-rule="nonzero"/><path fill="#040505" d="M 403.75 246.617188 L 400.257812 246.617188 L 400.257812 304.894531 L 403.75 304.894531 L 400.691406 303.203125 C 400.175781 304.152344 399.085938 305.816406 397.535156 307.101562 C 396.769531 307.742188 395.886719 308.316406 394.898438 308.707031 C 393.90625 309.113281 392.800781 309.367188 391.476562 309.367188 C 389.296875 309.367188 386.421875 308.667969 382.691406 306.359375 L 380.847656 309.335938 L 383.308594 306.847656 C 381.617188 305.171875 379.691406 303.773438 377.59375 302.699219 L 376.003906 305.816406 L 378.238281 303.117188 L 378.183594 303.074219 C 377.273438 302.335938 376.058594 302.082031 374.941406 302.417969 C 373.824219 302.769531 372.945312 303.648438 372.609375 304.765625 L 372.597656 304.78125 L 375.949219 305.789062 L 377.527344 302.671875 C 374.59375 301.175781 371.285156 300.308594 367.820312 300.308594 C 361.285156 300.308594 355.378906 303.300781 351.246094 307.953125 C 347.085938 312.621094 344.558594 318.96875 344.558594 325.914062 C 344.558594 332.875 347.085938 339.234375 351.246094 343.890625 C 355.378906 348.542969 361.285156 351.535156 367.820312 351.523438 C 371.285156 351.523438 374.59375 350.667969 377.527344 349.1875 L 375.949219 346.070312 L 372.820312 347.621094 L 372.832031 347.636719 C 373.292969 348.574219 374.160156 349.242188 375.179688 349.480469 C 376.199219 349.71875 377.273438 349.480469 378.097656 348.824219 L 378.152344 348.78125 L 376.003906 346.027344 L 377.59375 349.144531 C 379.691406 348.070312 381.617188 346.65625 383.292969 345.007812 L 380.847656 342.507812 L 382.691406 345.484375 C 386.421875 343.175781 389.296875 342.476562 391.488281 342.476562 C 392.800781 342.476562 393.90625 342.730469 394.898438 343.121094 C 396.378906 343.722656 397.621094 344.699219 398.609375 345.761719 C 399.589844 346.8125 400.300781 347.929688 400.691406 348.640625 L 403.75 346.953125 L 400.257812 346.953125 L 400.257812 405.222656 C 400.257812 406.144531 400.636719 407.039062 401.292969 407.699219 C 401.933594 408.355469 402.828125 408.71875 403.75 408.71875 L 460.890625 408.71875 L 460.890625 405.222656 L 459.550781 408.453125 L 460.09375 407.125 L 459.535156 408.4375 L 459.550781 408.453125 L 460.09375 407.125 L 459.535156 408.4375 C 459.5625 408.453125 461.492188 409.320312 463.222656 410.984375 C 464.085938 411.792969 464.898438 412.800781 465.484375 413.960938 C 466.058594 415.121094 466.433594 416.433594 466.449219 418.054688 C 466.433594 420.25 465.734375 423.113281 463.429688 426.859375 L 466.40625 428.691406 L 463.921875 426.246094 C 462.257812 427.9375 460.847656 429.851562 459.785156 431.960938 L 462.886719 433.542969 L 460.207031 431.320312 L 460.148438 431.375 C 459.480469 432.199219 459.214844 433.289062 459.4375 434.324219 C 459.648438 435.359375 460.332031 436.253906 461.28125 436.730469 L 461.296875 436.730469 L 462.859375 433.613281 L 459.746094 432.03125 C 458.265625 434.96875 457.398438 438.253906 457.398438 441.746094 C 457.398438 448.289062 460.386719 454.1875 465.023438 458.339844 C 469.6875 462.503906 476.027344 465.019531 482.980469 465.019531 C 489.933594 465.019531 496.273438 462.503906 500.925781 458.339844 C 505.574219 454.1875 508.5625 448.289062 508.5625 441.746094 C 508.5625 438.253906 507.695312 434.96875 506.21875 432.03125 L 503.101562 433.613281 L 504.511719 436.800781 L 504.527344 436.800781 C 505.519531 436.351562 506.246094 435.484375 506.496094 434.421875 C 506.761719 433.375 506.511719 432.269531 505.839844 431.417969 L 505.796875 431.363281 L 503.0625 433.542969 L 506.175781 431.960938 C 505.101562 429.851562 503.703125 427.9375 502.042969 426.246094 L 499.554688 428.691406 L 502.53125 426.859375 C 500.210938 423.113281 499.515625 420.25 499.515625 418.054688 C 499.515625 416.378906 499.917969 415.035156 500.535156 413.847656 C 501.457031 412.074219 502.949219 410.660156 504.246094 409.738281 C 504.890625 409.277344 505.460938 408.929688 505.867188 408.71875 C 506.078125 408.605469 506.230469 408.535156 506.328125 408.496094 L 506.414062 408.453125 L 506.425781 408.4375 L 505.671875 406.691406 L 506.414062 408.453125 L 506.425781 408.4375 L 505.671875 406.691406 L 506.414062 408.453125 L 505.070312 405.222656 L 505.070312 408.71875 L 562.199219 408.71875 C 563.121094 408.71875 564.027344 408.355469 564.667969 407.699219 C 565.324219 407.039062 565.6875 406.144531 565.6875 405.222656 L 565.6875 246.621094 C 565.6875 245.695312 565.324219 244.800781 564.667969 244.144531 C 564.027344 243.496094 563.121094 243.125 562.199219 243.125 L 403.75 243.125 C 402.828125 243.125 401.933594 243.496094 401.292969 244.144531 C 400.636719 244.800781 400.257812 245.695312 400.257812 246.617188 L 403.75 246.617188 L 403.75 250.113281 L 558.707031 250.113281 L 558.707031 401.730469 L 505.070312 401.730469 C 504.609375 401.730469 504.164062 401.8125 503.730469 401.996094 C 503.492188 402.105469 500.925781 403.167969 498.1875 405.65625 C 496.832031 406.914062 495.421875 408.535156 494.347656 410.605469 C 493.257812 412.671875 492.53125 415.203125 492.53125 418.054688 C 492.53125 421.789062 493.761719 425.980469 496.582031 430.535156 C 496.722656 430.746094 496.890625 430.96875 497.070312 431.136719 C 498.242188 432.355469 499.222656 433.695312 499.960938 435.136719 C 500.074219 435.359375 500.183594 435.542969 500.339844 435.738281 L 500.378906 435.777344 L 503.101562 433.597656 L 501.691406 430.410156 L 501.679688 430.410156 C 500.8125 430.800781 500.128906 431.53125 499.808594 432.4375 C 499.484375 433.347656 499.554688 434.324219 499.988281 435.191406 C 501.007812 437.21875 501.582031 439.414062 501.582031 441.746094 C 501.582031 446.136719 499.613281 450.121094 496.273438 453.140625 C 492.921875 456.128906 488.230469 458.03125 482.980469 458.03125 C 477.730469 458.03125 473.023438 456.128906 469.6875 453.140625 C 466.351562 450.121094 464.382812 446.136719 464.382812 441.746094 C 464.382812 439.414062 464.953125 437.21875 465.972656 435.191406 C 466.390625 434.351562 466.460938 433.386719 466.167969 432.507812 C 465.875 431.628906 465.246094 430.902344 464.421875 430.480469 L 464.410156 430.46875 L 462.84375 433.597656 L 465.539062 435.820312 L 465.582031 435.765625 C 465.75 435.582031 465.890625 435.359375 466 435.136719 C 466.742188 433.683594 467.71875 432.339844 468.890625 431.152344 C 469.058594 430.96875 469.242188 430.746094 469.367188 430.535156 C 472.1875 425.980469 473.429688 421.789062 473.429688 418.054688 C 473.429688 415.203125 472.691406 412.671875 471.613281 410.605469 C 469.980469 407.503906 467.664062 405.40625 465.777344 404.0625 C 463.894531 402.707031 462.398438 402.078125 462.230469 401.996094 C 461.796875 401.8125 461.351562 401.730469 460.890625 401.730469 L 407.242188 401.730469 L 407.242188 346.953125 C 407.242188 346.351562 407.101562 345.777344 406.808594 345.261719 C 406 343.804688 404.503906 341.472656 402.03125 339.390625 C 400.789062 338.339844 399.296875 337.363281 397.523438 336.648438 C 395.75 335.921875 393.710938 335.488281 391.488281 335.488281 C 387.746094 335.488281 383.574219 336.71875 379.019531 339.542969 C 378.796875 339.667969 378.585938 339.835938 378.40625 340.019531 C 377.203125 341.207031 375.863281 342.183594 374.425781 342.910156 C 374.230469 343.007812 374.019531 343.148438 373.855469 343.273438 L 373.796875 343.316406 L 375.949219 346.070312 L 379.074219 344.503906 C 378.644531 343.667969 377.929688 343.039062 377.039062 342.742188 C 376.15625 342.449219 375.207031 342.519531 374.371094 342.941406 C 372.332031 343.972656 370.140625 344.53125 367.820312 344.53125 C 363.4375 344.53125 359.441406 342.578125 356.441406 339.222656 C 353.453125 335.882812 351.539062 331.183594 351.539062 325.914062 C 351.539062 320.671875 353.453125 315.964844 356.441406 312.621094 C 359.441406 309.269531 363.4375 307.3125 367.820312 307.296875 C 370.140625 307.3125 372.332031 307.871094 374.371094 308.90625 C 375.292969 309.367188 376.367188 309.40625 377.316406 308.988281 C 378.265625 308.582031 378.992188 307.785156 379.285156 306.792969 L 379.300781 306.765625 L 375.949219 305.773438 L 373.714844 308.457031 L 373.785156 308.511719 C 373.964844 308.667969 374.1875 308.820312 374.425781 308.933594 C 375.863281 309.660156 377.203125 310.636719 378.40625 311.824219 C 378.585938 311.992188 378.796875 312.175781 379.019531 312.300781 C 383.574219 315.125 387.746094 316.355469 391.476562 316.355469 C 393.710938 316.355469 395.75 315.90625 397.523438 315.195312 C 400.175781 314.117188 402.199219 312.453125 403.707031 310.859375 C 405.203125 309.253906 406.207031 307.675781 406.808594 306.597656 C 407.101562 306.066406 407.242188 305.492188 407.242188 304.894531 L 407.242188 246.617188 L 403.75 246.617188 L 403.75 250.113281 L 403.75 246.617188 " fill-opacity="1" fill-rule="nonzero"/><path fill="#7ecd50" d="M 505.15625 405.125 C 505.15625 405.125 489.265625 411.738281 499.652344 428.550781 C 501.0625 429.992188 502.25 431.628906 503.160156 433.402344 L 503.199219 433.457031 L 503.1875 433.457031 C 504.441406 435.933594 505.15625 438.6875 505.15625 441.578125 C 505.15625 452.496094 495.28125 461.34375 483.105469 461.34375 C 470.917969 461.34375 461.042969 452.496094 461.042969 441.578125 C 461.042969 438.6875 461.753906 435.933594 463.011719 433.457031 L 463 433.457031 L 463.039062 433.402344 C 463.949219 431.628906 465.136719 429.992188 466.546875 428.550781 C 476.933594 411.738281 461.042969 405.125 461.042969 405.125 L 404 405.125 L 404 462.222656 C 404 462.222656 410.605469 478.128906 427.40625 467.730469 C 428.855469 466.320312 430.476562 465.132812 432.25 464.238281 L 432.304688 464.179688 L 432.304688 464.195312 C 434.777344 462.9375 437.527344 462.222656 440.417969 462.222656 C 451.324219 462.222656 460.164062 472.105469 460.164062 484.308594 C 460.164062 496.496094 451.324219 506.378906 440.417969 506.378906 C 437.527344 506.378906 434.777344 505.667969 432.304688 504.410156 L 432.304688 504.421875 L 432.25 504.378906 C 430.476562 503.472656 428.84375 502.285156 427.40625 500.871094 C 410.605469 490.472656 404 506.378906 404 506.378906 L 404 563.476562 L 562.199219 563.476562 L 562.199219 405.125 L 505.15625 405.125 " fill-opacity="1" fill-rule="nonzero"/><path fill="#040505" d="M 505.15625 405.125 L 503.816406 401.898438 C 503.589844 401.996094 501.007812 403.070312 498.285156 405.558594 C 496.917969 406.804688 495.519531 408.425781 494.445312 410.492188 C 493.371094 412.5625 492.628906 415.089844 492.644531 417.929688 C 492.628906 421.660156 493.871094 425.839844 496.679688 430.398438 C 496.820312 430.605469 496.988281 430.816406 497.167969 431.011719 C 498.339844 432.214844 499.320312 433.542969 500.042969 434.980469 C 500.140625 435.164062 500.28125 435.402344 500.40625 435.554688 L 500.449219 435.609375 L 503.199219 433.457031 L 502.445312 430.046875 L 502.433594 430.046875 C 501.386719 430.285156 500.492188 431 500.03125 431.960938 C 499.570312 432.941406 499.582031 434.074219 500.074219 435.039062 C 501.105469 437.066406 501.664062 439.257812 501.664062 441.578125 C 501.664062 445.96875 499.710938 449.953125 496.371094 452.941406 C 493.035156 455.933594 488.34375 457.847656 483.105469 457.847656 C 477.855469 457.847656 473.164062 455.933594 469.839844 452.941406 C 466.488281 449.953125 464.535156 445.96875 464.535156 441.578125 C 464.535156 439.257812 465.105469 437.066406 466.125 435.039062 C 466.617188 434.074219 466.628906 432.941406 466.167969 431.960938 C 465.707031 431 464.8125 430.285156 463.765625 430.046875 L 463.753906 430.046875 L 463 433.457031 L 465.777344 435.570312 L 465.820312 435.511719 C 465.945312 435.359375 466.058594 435.164062 466.15625 434.980469 C 466.894531 433.542969 467.859375 432.214844 469.046875 431.011719 C 469.210938 430.816406 469.394531 430.605469 469.519531 430.398438 C 472.328125 425.839844 473.570312 421.660156 473.570312 417.929688 C 473.570312 415.09375 472.84375 412.5625 471.753906 410.492188 C 470.132812 407.390625 467.816406 405.308594 465.929688 403.953125 C 464.046875 402.597656 462.550781 401.96875 462.382812 401.898438 C 461.953125 401.714844 461.503906 401.632812 461.042969 401.632812 L 404 401.632812 C 403.078125 401.632812 402.1875 401.996094 401.53125 402.652344 C 400.875 403.308594 400.511719 404.203125 400.511719 405.125 L 400.511719 462.222656 C 400.511719 462.699219 400.59375 463.148438 400.777344 463.566406 C 400.875 463.789062 401.933594 466.375 404.433594 469.101562 C 405.675781 470.472656 407.296875 471.867188 409.363281 472.945312 C 411.429688 474.019531 413.957031 474.761719 416.792969 474.761719 C 420.519531 474.761719 424.695312 473.519531 429.234375 470.707031 C 429.457031 470.582031 429.667969 470.402344 429.847656 470.234375 C 431.0625 469.046875 432.390625 468.082031 433.828125 467.339844 C 434.050781 467.226562 434.273438 467.089844 434.46875 466.921875 L 434.527344 466.878906 L 432.304688 464.179688 L 429.039062 465.410156 L 429.039062 465.425781 C 429.386719 466.363281 430.113281 467.089844 431.035156 467.453125 C 431.972656 467.816406 432.992188 467.757812 433.882812 467.3125 C 435.910156 466.292969 438.101562 465.71875 440.417969 465.71875 C 444.804688 465.71875 448.769531 467.6875 451.773438 471.03125 C 454.761719 474.355469 456.671875 479.054688 456.671875 484.308594 C 456.671875 489.550781 454.761719 494.246094 451.773438 497.585938 C 448.769531 500.929688 444.804688 502.886719 440.417969 502.886719 C 438.101562 502.886719 435.910156 502.324219 433.882812 501.292969 C 432.960938 500.832031 431.886719 500.789062 430.921875 501.207031 C 429.972656 501.613281 429.261719 502.410156 428.96875 503.402344 L 428.953125 503.429688 L 432.304688 504.421875 L 434.527344 501.738281 L 434.46875 501.683594 C 434.273438 501.527344 434.050781 501.375 433.828125 501.261719 C 432.390625 500.535156 431.0625 499.558594 429.863281 498.382812 C 429.679688 498.203125 429.457031 498.035156 429.234375 497.894531 C 424.695312 495.085938 420.519531 493.839844 416.792969 493.839844 C 413.957031 493.839844 411.429688 494.582031 409.363281 495.660156 C 406.261719 497.28125 404.183594 499.613281 402.828125 501.488281 C 401.472656 503.375 400.84375 504.871094 400.777344 505.039062 C 400.59375 505.472656 400.511719 505.917969 400.511719 506.378906 L 400.511719 563.476562 C 400.511719 564.398438 400.875 565.308594 401.53125 565.953125 C 402.1875 566.609375 403.078125 566.972656 404 566.972656 L 562.199219 566.972656 C 563.121094 566.972656 564.027344 566.609375 564.667969 565.953125 C 565.324219 565.308594 565.6875 564.398438 565.6875 563.476562 L 565.6875 405.125 C 565.6875 404.203125 565.324219 403.308594 564.667969 402.652344 C 564.027344 401.996094 563.121094 401.632812 562.199219 401.632812 L 505.15625 401.632812 C 504.695312 401.632812 504.246094 401.714844 503.816406 401.898438 L 505.15625 405.125 L 505.15625 408.621094 L 558.707031 408.621094 L 558.707031 559.984375 L 407.492188 559.984375 L 407.492188 506.378906 L 404 506.378906 L 407.226562 507.722656 L 405.898438 507.175781 L 407.214844 507.75 L 407.226562 507.722656 L 405.898438 507.175781 L 407.214844 507.75 C 407.226562 507.707031 408.09375 505.777344 409.742188 504.058594 C 410.550781 503.191406 411.554688 502.382812 412.714844 501.792969 C 413.859375 501.222656 415.171875 500.84375 416.792969 500.832031 C 418.984375 500.84375 421.847656 501.542969 425.574219 503.835938 L 427.40625 500.871094 L 424.960938 503.359375 C 426.652344 505.023438 428.5625 506.421875 430.660156 507.496094 L 432.25 504.378906 L 430.015625 507.0625 L 430.070312 507.121094 C 430.964844 507.859375 432.195312 508.113281 433.3125 507.761719 C 434.429688 507.425781 435.308594 506.546875 435.644531 505.429688 L 435.644531 505.414062 L 432.304688 504.410156 L 430.726562 507.523438 C 433.660156 509.007812 436.941406 509.875 440.417969 509.875 C 446.941406 509.886719 452.832031 506.894531 456.980469 502.242188 C 461.128906 497.585938 463.640625 491.242188 463.65625 484.308594 C 463.640625 477.363281 461.128906 471.015625 456.980469 466.363281 C 452.832031 461.722656 446.941406 458.730469 440.417969 458.730469 C 436.941406 458.730469 433.660156 459.597656 430.726562 461.078125 L 432.304688 464.195312 L 435.574219 462.964844 L 435.574219 462.949219 C 435.167969 461.886719 434.289062 461.09375 433.199219 460.796875 C 432.109375 460.519531 430.9375 460.769531 430.070312 461.496094 L 430.015625 461.539062 L 432.25 464.238281 L 430.660156 461.121094 C 428.5625 462.195312 426.652344 463.59375 424.960938 465.242188 L 427.40625 467.730469 L 425.574219 464.769531 C 421.832031 467.058594 418.96875 467.757812 416.792969 467.773438 C 415.117188 467.757812 413.777344 467.367188 412.589844 466.753906 C 410.828125 465.832031 409.417969 464.347656 408.496094 463.046875 C 408.035156 462.40625 407.703125 461.820312 407.492188 461.414062 C 407.378906 461.21875 407.296875 461.0625 407.253906 460.964844 L 407.214844 460.867188 L 405.410156 461.636719 L 407.226562 460.882812 L 407.214844 460.867188 L 405.410156 461.636719 L 407.226562 460.882812 L 404 462.222656 L 407.492188 462.222656 L 407.492188 408.621094 L 461.042969 408.621094 L 461.042969 405.125 L 459.703125 408.355469 L 460.261719 407.011719 L 459.6875 408.339844 L 459.703125 408.355469 L 460.261719 407.011719 L 459.6875 408.339844 C 459.71875 408.355469 461.644531 409.222656 463.363281 410.871094 C 464.226562 411.679688 465.050781 412.6875 465.625 413.847656 C 466.195312 414.992188 466.574219 416.308594 466.585938 417.929688 C 466.574219 420.109375 465.875 422.988281 463.585938 426.722656 L 466.546875 428.550781 L 464.058594 426.105469 C 462.410156 427.796875 461 429.710938 459.941406 431.808594 L 463.039062 433.402344 L 460.261719 431.277344 L 460.21875 431.347656 C 459.507812 432.285156 459.3125 433.542969 459.71875 434.660156 C 460.136719 435.777344 461.085938 436.601562 462.246094 436.867188 L 462.257812 436.867188 L 463.011719 433.457031 L 459.898438 431.878906 C 458.417969 434.8125 457.550781 438.113281 457.550781 441.578125 C 457.550781 448.121094 460.527344 454.003906 465.175781 458.15625 C 469.828125 462.320312 476.167969 464.835938 483.105469 464.835938 C 490.03125 464.835938 496.371094 462.320312 501.023438 458.15625 C 505.671875 454.003906 508.644531 448.121094 508.644531 441.578125 C 508.644531 438.113281 507.792969 434.8125 506.300781 431.878906 L 503.1875 433.457031 L 503.941406 436.867188 L 503.953125 436.867188 C 505.128906 436.601562 506.089844 435.765625 506.496094 434.632812 C 506.886719 433.5 506.691406 432.242188 505.953125 431.292969 L 505.894531 431.234375 L 503.160156 433.402344 L 506.273438 431.808594 C 505.199219 429.710938 503.800781 427.796875 502.140625 426.105469 L 499.652344 428.550781 L 502.628906 426.722656 C 500.324219 422.988281 499.625 420.109375 499.625 417.929688 C 499.625 416.25 500.015625 414.925781 500.632812 413.722656 C 501.554688 411.960938 503.03125 410.550781 504.332031 409.625 C 504.972656 409.164062 505.558594 408.828125 505.964844 408.621094 C 506.160156 408.507812 506.316406 408.425781 506.414062 408.382812 L 506.511719 408.339844 L 505.769531 406.578125 L 506.496094 408.355469 L 506.511719 408.339844 L 505.769531 406.578125 L 506.496094 408.355469 L 505.15625 405.125 L 505.15625 408.621094 L 505.15625 405.125 " fill-opacity="1" fill-rule="nonzero"/><path fill="#fbcb41" d="M 304.507812 404.886719 C 304.507812 404.886719 320.398438 398.261719 310.011719 381.449219 C 308.601562 379.996094 307.414062 378.371094 306.503906 376.597656 L 306.464844 376.542969 L 306.476562 376.542969 C 305.222656 374.054688 304.507812 371.3125 304.507812 368.421875 C 304.507812 357.503906 314.382812 348.671875 326.558594 348.671875 C 338.75 348.671875 348.621094 357.503906 348.621094 368.421875 C 348.621094 371.3125 347.910156 374.054688 346.652344 376.542969 L 346.609375 376.597656 C 345.714844 378.371094 344.527344 379.992188 343.117188 381.449219 C 332.730469 398.261719 348.621094 404.886719 348.621094 404.886719 L 405.664062 404.886719 L 405.664062 347.777344 C 405.664062 347.777344 399.058594 331.871094 382.257812 342.253906 C 380.808594 343.679688 379.1875 344.867188 377.414062 345.777344 L 377.359375 345.820312 L 377.359375 345.804688 C 374.871094 347.050781 372.136719 347.777344 369.246094 347.777344 C 358.339844 347.777344 349.5 337.894531 349.5 325.691406 C 349.5 313.503906 358.339844 303.621094 369.246094 303.621094 C 372.136719 303.621094 374.871094 304.332031 377.359375 305.589844 L 377.359375 305.578125 L 377.414062 305.621094 C 379.1875 306.515625 380.808594 307.714844 382.257812 309.128906 C 399.058594 319.527344 405.664062 303.621094 405.664062 303.621094 L 405.664062 246.515625 L 247.453125 246.515625 L 247.453125 404.882812 L 304.507812 404.882812 " fill-opacity="1" fill-rule="nonzero"/><g clip-path="url(#db8f33d659)"><path fill="#040505" d="M 304.507812 404.886719 L 305.847656 408.101562 C 306.074219 408.003906 308.65625 406.929688 311.378906 404.441406 C 312.734375 403.195312 314.144531 401.574219 315.21875 399.507812 C 316.292969 397.4375 317.035156 394.910156 317.019531 392.070312 C 317.035156 388.339844 315.792969 384.160156 312.984375 379.601562 C 312.84375 379.394531 312.675781 379.167969 312.496094 379 C 311.324219 377.785156 310.34375 376.457031 309.621094 375.019531 C 309.523438 374.835938 309.382812 374.613281 309.257812 374.445312 L 309.199219 374.390625 L 306.464844 376.542969 L 307.21875 379.953125 L 307.230469 379.953125 C 308.277344 379.730469 309.171875 379 309.621094 378.039062 C 310.082031 377.058594 310.082031 375.925781 309.589844 374.960938 C 308.558594 372.933594 308 370.742188 308 368.421875 C 308 364.03125 309.953125 360.0625 313.292969 357.058594 C 316.628906 354.066406 321.320312 352.152344 326.558594 352.164062 C 331.808594 352.152344 336.5 354.066406 339.824219 357.058594 C 343.160156 360.0625 345.128906 364.03125 345.128906 368.421875 C 345.128906 370.742188 344.558594 372.933594 343.539062 374.960938 C 343.050781 375.925781 343.035156 377.058594 343.496094 378.039062 C 343.957031 379 344.851562 379.730469 345.882812 379.953125 L 345.910156 379.953125 L 346.652344 376.542969 L 343.886719 374.429688 L 343.832031 374.488281 C 343.71875 374.65625 343.609375 374.835938 343.511719 375.003906 C 342.769531 376.457031 341.804688 377.785156 340.621094 379 C 340.4375 379.167969 340.269531 379.394531 340.144531 379.601562 C 337.324219 384.160156 336.09375 388.339844 336.09375 392.070312 C 336.09375 394.90625 336.820312 397.4375 337.894531 399.507812 C 339.53125 402.609375 341.847656 404.707031 343.734375 406.046875 C 345.617188 407.402344 347.097656 408.03125 347.28125 408.101562 C 347.699219 408.285156 348.144531 408.382812 348.621094 408.382812 L 405.664062 408.382812 C 406.585938 408.382812 407.476562 408.003906 408.132812 407.347656 C 408.777344 406.707031 409.152344 405.796875 409.152344 404.886719 L 409.152344 347.777344 C 409.152344 347.316406 409.070312 346.867188 408.886719 346.433594 C 408.789062 346.210938 407.714844 343.625 405.230469 340.898438 C 403.988281 339.527344 402.367188 338.132812 400.285156 337.054688 C 398.234375 335.964844 395.707031 335.238281 392.859375 335.25 C 389.144531 335.238281 384.953125 336.46875 380.417969 339.292969 C 380.207031 339.417969 379.984375 339.585938 379.800781 339.765625 C 378.601562 340.953125 377.273438 341.917969 375.820312 342.660156 C 375.640625 342.757812 375.429688 342.882812 375.261719 343.023438 L 375.207031 343.066406 L 377.359375 345.820312 L 380.625 344.589844 L 380.625 344.574219 C 380.277344 343.636719 379.550781 342.910156 378.628906 342.546875 C 377.691406 342.183594 376.675781 342.242188 375.78125 342.6875 C 373.742188 343.707031 371.5625 344.28125 369.246094 344.28125 C 364.859375 344.28125 360.882812 342.324219 357.878906 338.984375 C 354.90625 335.644531 352.992188 330.945312 352.992188 325.691406 C 352.992188 320.449219 354.90625 315.753906 357.878906 312.414062 C 360.882812 309.070312 364.859375 307.113281 369.246094 307.113281 C 371.5625 307.113281 373.753906 307.675781 375.78125 308.707031 C 376.675781 309.15625 377.691406 309.210938 378.628906 308.835938 C 379.550781 308.484375 380.277344 307.742188 380.625 306.820312 L 380.625 306.808594 L 377.359375 305.578125 L 375.136719 308.261719 L 375.179688 308.316406 C 375.375 308.472656 375.597656 308.625 375.835938 308.738281 C 377.273438 309.464844 378.601562 310.441406 379.800781 311.617188 C 379.984375 311.796875 380.207031 311.964844 380.417969 312.105469 C 384.96875 314.914062 389.144531 316.160156 392.859375 316.144531 C 395.707031 316.160156 398.234375 315.417969 400.285156 314.339844 C 403.402344 312.707031 405.480469 310.386719 406.835938 308.511719 C 408.191406 306.625 408.820312 305.128906 408.886719 304.960938 C 409.070312 304.527344 409.152344 304.082031 409.152344 303.621094 L 409.152344 246.515625 C 409.152344 245.59375 408.777344 244.691406 408.132812 244.042969 C 407.476562 243.390625 406.585938 243.019531 405.664062 243.019531 L 247.453125 243.019531 C 246.539062 243.019531 245.636719 243.390625 244.988281 244.042969 C 244.339844 244.691406 243.960938 245.59375 243.960938 246.515625 L 243.960938 404.882812 C 243.960938 405.789062 244.339844 406.699219 244.988281 407.339844 C 245.636719 408 246.539062 408.375 247.453125 408.375 L 304.507812 408.375 C 304.96875 408.375 305.417969 408.277344 305.847656 408.097656 L 304.507812 404.882812 L 304.507812 401.371094 L 250.945312 401.371094 L 250.945312 249.996094 L 402.171875 249.996094 L 402.171875 303.613281 L 405.664062 303.613281 L 402.4375 302.273438 L 403.777344 302.816406 L 402.453125 302.242188 L 402.4375 302.273438 L 403.777344 302.816406 L 402.453125 302.242188 C 402.4375 302.285156 401.570312 304.214844 399.925781 305.933594 C 399.113281 306.800781 398.109375 307.609375 396.949219 308.199219 C 395.789062 308.769531 394.492188 309.148438 392.859375 309.148438 C 390.679688 309.148438 387.816406 308.449219 384.089844 306.15625 L 382.257812 309.121094 L 384.703125 306.632812 C 383.011719 304.96875 381.101562 303.570312 378.992188 302.496094 L 377.414062 305.613281 L 379.648438 302.929688 L 379.59375 302.871094 C 378.710938 302.160156 377.554688 301.894531 376.464844 302.1875 C 375.375 302.480469 374.480469 303.277344 374.089844 304.339844 L 374.089844 304.355469 L 377.359375 305.585938 L 378.921875 302.46875 C 376.003906 300.984375 372.707031 300.121094 369.246094 300.121094 C 362.710938 300.121094 356.832031 303.097656 352.683594 307.75 C 348.523438 312.40625 346.007812 318.738281 346.007812 325.683594 C 346.007812 332.632812 348.523438 338.976562 352.683594 343.632812 C 356.832031 348.285156 362.710938 351.261719 369.246094 351.261719 C 372.707031 351.261719 376.003906 350.398438 378.921875 348.914062 L 377.359375 345.796875 L 374.089844 347.027344 L 374.089844 347.042969 C 374.480469 348.078125 375.347656 348.875 376.410156 349.167969 C 377.484375 349.472656 378.628906 349.25 379.507812 348.566406 L 379.566406 348.523438 L 377.414062 345.769531 L 379.007812 348.875 C 381.101562 347.796875 383.011719 346.414062 384.703125 344.75 L 382.257812 342.246094 L 384.089844 345.226562 C 387.816406 342.933594 390.679688 342.234375 392.859375 342.234375 C 394.535156 342.234375 395.875 342.625 397.0625 343.238281 C 398.835938 344.148438 400.246094 345.644531 401.167969 346.945312 C 401.628906 347.585938 401.960938 348.175781 402.171875 348.578125 C 402.285156 348.773438 402.355469 348.929688 402.410156 349.027344 L 402.453125 349.125 L 404.226562 348.371094 L 402.4375 349.109375 L 402.453125 349.125 L 404.226562 348.371094 L 402.4375 349.109375 L 405.664062 347.769531 L 402.171875 347.769531 L 402.171875 401.371094 L 348.621094 401.371094 L 348.621094 404.882812 L 349.960938 401.652344 L 349.402344 402.980469 L 349.976562 401.652344 L 349.960938 401.652344 L 349.402344 402.980469 L 349.976562 401.652344 C 349.949219 401.652344 348.019531 400.773438 346.289062 399.121094 C 345.4375 398.3125 344.613281 397.304688 344.039062 396.160156 C 343.453125 395 343.089844 393.683594 343.078125 392.0625 C 343.078125 389.882812 343.773438 387.003906 346.078125 383.273438 L 343.117188 381.441406 L 345.605469 383.886719 C 347.253906 382.195312 348.648438 380.28125 349.722656 378.183594 L 346.609375 376.589844 L 349.402344 378.714844 L 349.445312 378.660156 C 350.15625 377.707031 350.351562 376.449219 349.949219 375.332031 C 349.527344 374.214844 348.578125 373.375 347.417969 373.125 L 347.40625 373.125 L 346.652344 376.535156 L 349.765625 378.113281 C 351.246094 375.179688 352.113281 371.878906 352.113281 368.414062 C 352.113281 361.871094 349.125 355.988281 344.488281 351.835938 C 339.835938 347.671875 333.496094 345.167969 326.558594 345.167969 C 319.617188 345.167969 313.292969 347.671875 308.640625 351.835938 C 303.992188 355.988281 301.003906 361.871094 301.019531 368.414062 C 301.019531 371.878906 301.871094 375.179688 303.363281 378.113281 L 306.476562 376.535156 L 305.710938 373.125 C 304.535156 373.390625 303.574219 374.226562 303.167969 375.359375 C 302.761719 376.492188 302.972656 377.75 303.710938 378.703125 L 303.769531 378.757812 L 306.503906 376.589844 L 303.390625 378.183594 C 304.46875 380.28125 305.863281 382.195312 307.523438 383.886719 L 310.011719 381.441406 L 307.035156 383.273438 C 309.339844 387.003906 310.039062 389.882812 310.039062 392.0625 C 310.039062 393.742188 309.632812 395.082031 309.03125 396.269531 C 308.113281 398.03125 306.617188 399.445312 305.332031 400.367188 C 304.691406 400.828125 304.105469 401.164062 303.699219 401.386719 C 303.488281 401.484375 303.335938 401.554688 303.253906 401.609375 L 303.15625 401.652344 L 303.140625 401.652344 L 303.910156 403.425781 L 303.167969 401.652344 L 303.140625 401.652344 L 303.910156 403.425781 L 303.167969 401.652344 L 304.507812 404.882812 L 304.507812 401.371094 L 304.507812 404.882812 " fill-opacity="1" fill-rule="nonzero"/></g></svg>