<svg xmlns="http://www.w3.org/2000/svg" xmlns:xlink="http://www.w3.org/1999/xlink" width="1080" zoomAndPan="magnify" viewBox="0 0 810 809.999993" height="1080" preserveAspectRatio="xMidYMid meet" version="1.0"><defs><clipPath id="29b4be53e4"><path d="M 243.589844 345 L 466 345 L 466 567 L 243.589844 567 Z M 243.589844 345 " clip-rule="nonzero"/></clipPath><clipPath id="9a836fb8cf"><path d="M 344 243 L 566.089844 243 L 566.089844 466 L 344 466 Z M 344 243 " clip-rule="nonzero"/></clipPath><clipPath id="17c74dde27"><path d="M 400 401 L 566.089844 401 L 566.089844 567 L 400 567 Z M 400 401 " clip-rule="nonzero"/></clipPath><clipPath id="67678884b4"><path d="M 243.589844 243 L 410 243 L 410 409 L 243.589844 409 Z M 243.589844 243 " clip-rule="nonzero"/></clipPath></defs><path fill="#f97300" d="M 441.910156 462.070312 C 439.003906 462.070312 436.265625 462.785156 433.777344 464.042969 L 433.777344 464.027344 L 433.722656 464.070312 C 431.945312 464.976562 430.324219 466.164062 428.871094 467.589844 C 414.769531 476.3125 407.835938 466.558594 405.949219 463.160156 L 405.949219 404.886719 L 348.75 404.886719 C 348.75 404.886719 332.832031 398.25 343.230469 381.40625 C 344.65625 379.964844 345.84375 378.332031 346.753906 376.554688 L 346.792969 376.5 L 346.78125 376.5 C 348.039062 374.011719 348.75 371.257812 348.75 368.363281 C 348.75 357.433594 338.855469 348.574219 326.640625 348.574219 C 314.4375 348.574219 304.527344 357.433594 304.527344 368.363281 C 304.527344 371.257812 305.253906 374.011719 306.496094 376.5 L 306.539062 376.554688 C 307.449219 378.332031 308.621094 379.964844 310.046875 381.40625 C 320.460938 398.25 304.527344 404.886719 304.527344 404.886719 L 247.335938 404.886719 L 247.335938 563.476562 L 405.953125 563.476562 L 405.941406 505.207031 C 407.828125 501.808594 414.761719 492.050781 428.863281 500.773438 C 430.316406 502.199219 431.9375 503.375 433.714844 504.28125 L 433.769531 504.324219 C 436.257812 505.582031 438.996094 506.296875 441.90625 506.296875 C 452.835938 506.296875 461.699219 496.386719 461.699219 484.183594 C 461.699219 471.964844 452.835938 462.070312 441.90625 462.070312 " fill-opacity="1" fill-rule="nonzero"/><g clip-path="url(#29b4be53e4)"><path fill="#040505" d="M 441.910156 462.070312 L 441.910156 458.574219 C 438.429688 458.574219 435.132812 459.441406 432.199219 460.925781 L 433.777344 464.042969 L 437.046875 462.8125 L 437.046875 462.796875 C 436.65625 461.761719 435.789062 460.964844 434.726562 460.671875 C 433.652344 460.363281 432.503906 460.589844 431.625 461.273438 L 431.570312 461.316406 L 433.722656 464.070312 L 432.140625 460.964844 C 430.015625 462.027344 428.101562 463.441406 426.425781 465.101562 L 428.871094 467.589844 L 427.027344 464.613281 C 423.292969 466.921875 420.414062 467.621094 418.234375 467.632812 C 416.90625 467.621094 415.800781 467.382812 414.808594 466.976562 C 413.328125 466.375 412.082031 465.398438 411.089844 464.335938 C 410.097656 463.285156 409.398438 462.183594 409.007812 461.46875 L 405.949219 463.160156 L 409.441406 463.160156 L 409.441406 404.886719 C 409.441406 403.964844 409.066406 403.058594 408.421875 402.414062 C 407.765625 401.757812 406.855469 401.378906 405.949219 401.378906 L 348.75 401.378906 L 348.75 404.886719 L 350.09375 401.660156 L 349.546875 402.960938 L 350.121094 401.660156 L 350.09375 401.660156 L 349.546875 402.960938 L 350.121094 401.660156 C 350.078125 401.660156 348.152344 400.777344 346.417969 399.128906 C 345.550781 398.304688 344.738281 397.3125 344.152344 396.152344 C 343.578125 394.976562 343.203125 393.679688 343.203125 392.042969 C 343.203125 389.863281 343.902344 386.984375 346.207031 383.25 L 343.230469 381.40625 L 345.71875 383.867188 C 347.382812 382.175781 348.792969 380.246094 349.855469 378.148438 L 346.753906 376.554688 L 349.476562 378.734375 L 349.519531 378.679688 C 350.175781 377.855469 350.429688 376.777344 350.207031 375.757812 C 349.980469 374.710938 349.296875 373.84375 348.359375 373.382812 L 348.347656 373.367188 L 346.78125 376.5 L 349.898438 378.078125 C 351.378906 375.144531 352.246094 371.84375 352.246094 368.363281 C 352.246094 361.824219 349.269531 355.910156 344.613281 351.773438 C 339.945312 347.59375 333.601562 345.078125 326.640625 345.078125 C 319.691406 345.078125 313.332031 347.59375 308.679688 351.773438 C 304.023438 355.910156 301.03125 361.824219 301.03125 368.363281 C 301.03125 371.84375 301.898438 375.144531 303.378906 378.078125 L 306.496094 376.5 L 305.085938 373.300781 L 305.070312 373.3125 C 304.078125 373.746094 303.351562 374.613281 303.101562 375.675781 C 302.835938 376.738281 303.085938 377.828125 303.757812 378.679688 L 303.800781 378.734375 L 306.539062 376.554688 L 303.421875 378.148438 C 304.5 380.246094 305.894531 382.175781 307.558594 383.851562 L 310.046875 381.40625 L 307.070312 383.25 C 309.390625 386.984375 310.089844 389.863281 310.089844 392.042969 C 310.089844 393.734375 309.683594 395.074219 309.070312 396.265625 C 308.148438 398.039062 306.652344 399.4375 305.351562 400.375 C 304.707031 400.835938 304.121094 401.171875 303.730469 401.394531 C 303.519531 401.492188 303.367188 401.5625 303.269531 401.617188 L 303.171875 401.660156 L 303.925781 403.421875 L 303.183594 401.660156 L 303.171875 401.660156 L 303.925781 403.421875 L 303.183594 401.660156 L 304.527344 404.886719 L 304.527344 401.378906 L 247.335938 401.378906 C 246.414062 401.378906 245.519531 401.757812 244.863281 402.414062 C 244.214844 403.058594 243.84375 403.964844 243.84375 404.886719 L 243.84375 563.476562 C 243.84375 564.398438 244.214844 565.308594 244.871094 565.953125 C 245.519531 566.609375 246.421875 566.972656 247.335938 566.972656 L 405.953125 566.972656 C 406.847656 566.972656 407.757812 566.609375 408.414062 565.953125 C 409.058594 565.308594 409.433594 564.398438 409.433594 563.476562 L 409.433594 505.207031 L 405.941406 505.207031 L 409 506.894531 C 409.519531 505.945312 410.609375 504.296875 412.160156 502.996094 C 412.929688 502.355469 413.808594 501.78125 414.800781 501.390625 C 415.796875 500.984375 416.898438 500.730469 418.226562 500.730469 C 420.40625 500.730469 423.285156 501.429688 427.019531 503.75 L 428.863281 500.773438 L 426.417969 503.261719 C 428.09375 504.925781 430.023438 506.324219 432.132812 507.398438 L 433.714844 504.28125 L 431.476562 506.980469 L 431.535156 507.023438 C 432.414062 507.75 433.574219 508 434.664062 507.707031 C 435.753906 507.425781 436.648438 506.617188 437.039062 505.554688 L 433.769531 504.324219 L 432.191406 507.441406 C 435.125 508.921875 438.425781 509.789062 441.90625 509.789062 C 448.445312 509.789062 454.34375 506.796875 458.511719 502.144531 C 462.675781 497.488281 465.191406 491.128906 465.191406 484.183594 C 465.191406 477.222656 462.675781 470.875 458.511719 466.207031 C 454.34375 461.554688 448.445312 458.574219 441.90625 458.574219 L 441.90625 465.566406 C 446.292969 465.566406 450.292969 467.535156 453.296875 470.875 C 456.289062 474.21875 458.203125 478.914062 458.203125 484.183594 C 458.203125 489.4375 456.289062 494.148438 453.296875 497.488281 C 450.292969 500.828125 446.292969 502.800781 441.90625 502.800781 C 439.585938 502.800781 437.390625 502.226562 435.347656 501.207031 C 434.453125 500.761719 433.433594 500.703125 432.5 501.066406 C 431.574219 501.429688 430.847656 502.15625 430.5 503.09375 L 430.5 503.109375 L 433.769531 504.324219 L 436.007812 501.640625 L 435.949219 501.597656 C 435.753906 501.429688 435.53125 501.292969 435.308594 501.179688 C 433.855469 500.4375 432.511719 499.460938 431.308594 498.285156 C 431.128906 498.105469 430.917969 497.9375 430.695312 497.796875 C 426.136719 494.972656 421.960938 493.742188 418.226562 493.742188 C 415.992188 493.742188 413.949219 494.191406 412.175781 494.917969 C 409.519531 495.992188 407.492188 497.644531 405.984375 499.238281 C 404.488281 500.859375 403.480469 502.421875 402.878906 503.515625 C 402.601562 504.03125 402.445312 504.617188 402.445312 505.203125 L 402.445312 559.984375 L 250.832031 559.984375 L 250.832031 408.367188 L 304.519531 408.382812 C 304.996094 408.382812 305.441406 408.285156 305.863281 408.101562 C 306.085938 408.003906 308.671875 406.929688 311.410156 404.441406 C 312.78125 403.183594 314.179688 401.5625 315.253906 399.492188 C 316.34375 397.425781 317.070312 394.894531 317.070312 392.042969 C 317.070312 388.3125 315.839844 384.117188 313.019531 379.574219 C 312.878906 379.351562 312.710938 379.140625 312.527344 378.960938 C 311.355469 377.757812 310.375 376.414062 309.636719 374.960938 C 309.523438 374.738281 309.410156 374.570312 309.257812 374.375 L 309.214844 374.320312 L 306.492188 376.5 L 307.902344 379.699219 L 307.917969 379.6875 C 308.78125 379.296875 309.46875 378.566406 309.789062 377.671875 C 310.109375 376.765625 310.039062 375.773438 309.605469 374.921875 C 308.585938 372.878906 308.015625 370.683594 308.015625 368.363281 C 308.015625 363.976562 309.984375 359.976562 313.324219 356.972656 C 316.667969 353.980469 321.375 352.066406 326.632812 352.066406 C 331.902344 352.066406 336.597656 353.980469 339.9375 356.972656 C 343.28125 359.976562 345.25 363.976562 345.25 368.363281 C 345.25 370.683594 344.675781 372.878906 343.65625 374.921875 C 343.238281 375.757812 343.167969 376.710938 343.460938 377.589844 C 343.753906 378.484375 344.382812 379.195312 345.207031 379.617188 L 345.222656 379.628906 L 346.789062 376.5 L 344.0625 374.320312 L 344.007812 374.375 C 343.851562 374.570312 343.742188 374.738281 343.628906 374.960938 C 342.886719 376.414062 341.921875 377.757812 340.734375 378.945312 C 340.554688 379.128906 340.386719 379.351562 340.261719 379.574219 C 337.4375 384.117188 336.191406 388.3125 336.207031 392.042969 C 336.191406 394.894531 336.933594 397.425781 338.011719 399.492188 C 339.632812 402.59375 341.964844 404.691406 343.851562 406.046875 C 345.738281 407.402344 347.234375 408.03125 347.402344 408.101562 C 347.835938 408.285156 348.285156 408.382812 348.746094 408.382812 L 402.445312 408.382812 L 402.445312 463.160156 C 402.445312 463.746094 402.601562 464.335938 402.878906 464.851562 C 403.691406 466.292969 405.1875 468.625 407.675781 470.707031 C 408.902344 471.757812 410.414062 472.734375 412.175781 473.449219 C 413.949219 474.175781 415.992188 474.621094 418.226562 474.621094 C 421.960938 474.621094 426.136719 473.378906 430.695312 470.554688 C 430.917969 470.429688 431.128906 470.261719 431.308594 470.078125 C 432.511719 468.890625 433.855469 467.914062 435.308594 467.1875 C 435.476562 467.089844 435.699219 466.960938 435.867188 466.835938 L 435.921875 466.78125 L 433.769531 464.027344 L 430.5 465.257812 L 430.5 465.269531 C 430.847656 466.207031 431.574219 466.933594 432.5 467.296875 C 433.433594 467.660156 434.453125 467.605469 435.347656 467.15625 C 437.390625 466.136719 439.585938 465.566406 441.90625 465.566406 L 441.90625 462.070312 " fill-opacity="1" fill-rule="nonzero"/></g><path fill="#005b41" d="M 403.90625 246.617188 L 403.90625 304.894531 C 402.019531 308.289062 395.085938 318.046875 380.984375 309.335938 C 379.542969 307.910156 377.910156 306.722656 376.132812 305.816406 L 376.078125 305.773438 L 376.078125 305.789062 C 373.589844 304.527344 370.835938 303.800781 367.941406 303.800781 C 357.011719 303.800781 348.152344 313.710938 348.152344 325.914062 C 348.152344 338.144531 357.011719 348.027344 367.941406 348.027344 C 370.835938 348.027344 373.589844 347.316406 376.078125 346.070312 L 376.132812 346.027344 C 377.910156 345.132812 379.542969 343.933594 380.984375 342.507812 C 395.085938 333.796875 402.019531 343.539062 403.90625 346.949219 L 403.90625 405.222656 L 461.101562 405.222656 C 461.101562 405.222656 477.039062 411.847656 466.625 428.691406 C 465.199219 430.144531 464.011719 431.765625 463.101562 433.542969 L 463.058594 433.597656 L 463.074219 433.613281 C 461.816406 436.085938 461.101562 438.839844 461.101562 441.746094 C 461.101562 452.664062 471 461.523438 483.214844 461.523438 C 495.433594 461.523438 505.328125 452.664062 505.328125 441.746094 C 505.328125 438.839844 504.601562 436.085938 503.355469 433.613281 L 503.355469 433.597656 L 503.316406 433.542969 C 502.421875 431.765625 501.234375 430.144531 499.808594 428.691406 C 489.394531 411.847656 505.328125 405.222656 505.328125 405.222656 L 562.511719 405.222656 L 562.511719 246.621094 L 403.90625 246.617188 " fill-opacity="1" fill-rule="nonzero"/><g clip-path="url(#9a836fb8cf)"><path fill="#040505" d="M 403.90625 246.617188 L 400.414062 246.617188 L 400.414062 304.894531 L 403.90625 304.894531 L 400.847656 303.203125 C 400.328125 304.152344 399.238281 305.816406 397.6875 307.101562 C 396.917969 307.742188 396.039062 308.316406 395.046875 308.707031 C 394.054688 309.113281 392.949219 309.367188 391.621094 309.367188 C 389.441406 309.367188 386.5625 308.667969 382.828125 306.359375 L 380.984375 309.335938 L 383.445312 306.847656 C 381.753906 305.171875 379.824219 303.773438 377.726562 302.699219 L 376.132812 305.816406 L 378.371094 303.117188 L 378.3125 303.074219 C 377.40625 302.335938 376.191406 302.082031 375.070312 302.417969 C 373.953125 302.769531 373.074219 303.648438 372.738281 304.765625 L 372.722656 304.78125 L 376.078125 305.789062 L 377.65625 302.671875 C 374.722656 301.175781 371.410156 300.308594 367.941406 300.308594 C 361.402344 300.308594 355.488281 303.300781 351.351562 307.953125 C 347.1875 312.621094 344.65625 318.96875 344.65625 325.914062 C 344.65625 332.875 347.1875 339.234375 351.351562 343.890625 C 355.488281 348.542969 361.402344 351.535156 367.941406 351.523438 C 371.410156 351.523438 374.722656 350.667969 377.65625 349.1875 L 376.078125 346.070312 L 372.945312 347.621094 L 372.960938 347.636719 C 373.421875 348.574219 374.289062 349.242188 375.308594 349.480469 C 376.328125 349.71875 377.40625 349.480469 378.230469 348.824219 L 378.285156 348.78125 L 376.132812 346.027344 L 377.726562 349.144531 C 379.824219 348.070312 381.753906 346.65625 383.429688 345.007812 L 380.984375 342.507812 L 382.828125 345.484375 C 386.5625 343.175781 389.441406 342.476562 391.632812 342.476562 C 392.949219 342.476562 394.054688 342.730469 395.046875 343.121094 C 396.527344 343.722656 397.769531 344.699219 398.761719 345.761719 C 399.742188 346.8125 400.453125 347.929688 400.847656 348.640625 L 403.90625 346.953125 L 400.414062 346.953125 L 400.414062 405.222656 C 400.414062 406.144531 400.789062 407.039062 401.445312 407.699219 C 402.089844 408.355469 402.984375 408.71875 403.90625 408.71875 L 461.101562 408.71875 L 461.101562 405.222656 L 459.761719 408.453125 L 460.304688 407.125 L 459.746094 408.4375 L 459.761719 408.453125 L 460.304688 407.125 L 459.746094 408.4375 C 459.773438 408.453125 461.703125 409.320312 463.4375 410.984375 C 464.304688 411.792969 465.113281 412.800781 465.703125 413.960938 C 466.273438 415.121094 466.652344 416.433594 466.667969 418.054688 C 466.652344 420.25 465.953125 423.113281 463.648438 426.859375 L 466.625 428.691406 L 464.136719 426.246094 C 462.472656 427.9375 461.0625 429.851562 460 431.960938 L 463.101562 433.542969 L 460.417969 431.320312 L 460.363281 431.375 C 459.691406 432.199219 459.425781 433.289062 459.648438 434.324219 C 459.859375 435.359375 460.542969 436.253906 461.496094 436.730469 L 461.507812 436.730469 L 463.074219 433.613281 L 459.957031 432.03125 C 458.476562 434.96875 457.609375 438.253906 457.609375 441.746094 C 457.609375 448.289062 460.601562 454.1875 465.242188 458.339844 C 469.910156 462.503906 476.253906 465.019531 483.214844 465.019531 C 490.175781 465.019531 496.523438 462.503906 501.175781 458.339844 C 505.832031 454.1875 508.824219 448.289062 508.824219 441.746094 C 508.824219 438.253906 507.957031 434.96875 506.472656 432.03125 L 503.359375 433.613281 L 504.769531 436.800781 L 504.785156 436.800781 C 505.777344 436.351562 506.503906 435.484375 506.753906 434.421875 C 507.019531 433.375 506.769531 432.269531 506.097656 431.417969 L 506.054688 431.363281 L 503.316406 433.542969 L 506.433594 431.960938 C 505.355469 429.851562 503.957031 427.9375 502.296875 426.246094 L 499.808594 428.691406 L 502.785156 426.859375 C 500.464844 423.113281 499.765625 420.25 499.765625 418.054688 C 499.765625 416.378906 500.171875 415.035156 500.785156 413.847656 C 501.707031 412.074219 503.203125 410.660156 504.503906 409.738281 C 505.148438 409.277344 505.71875 408.929688 506.125 408.71875 C 506.335938 408.605469 506.488281 408.535156 506.585938 408.496094 L 506.671875 408.453125 L 506.683594 408.4375 L 505.929688 406.691406 L 506.671875 408.453125 L 506.683594 408.4375 L 505.929688 406.691406 L 506.671875 408.453125 L 505.328125 405.222656 L 505.328125 408.71875 L 562.511719 408.71875 C 563.433594 408.71875 564.339844 408.355469 564.984375 407.699219 C 565.640625 407.039062 566.003906 406.144531 566.003906 405.222656 L 566.003906 246.621094 C 566.003906 245.695312 565.640625 244.800781 564.984375 244.144531 C 564.339844 243.496094 563.433594 243.125 562.511719 243.125 L 403.90625 243.125 C 402.984375 243.125 402.089844 243.496094 401.445312 244.144531 C 400.789062 244.800781 400.414062 245.695312 400.414062 246.617188 L 403.90625 246.617188 L 403.90625 250.113281 L 559.015625 250.113281 L 559.015625 401.730469 L 505.328125 401.730469 C 504.867188 401.730469 504.417969 401.8125 503.988281 401.996094 C 503.75 402.105469 501.175781 403.167969 498.4375 405.65625 C 497.082031 406.914062 495.667969 408.535156 494.59375 410.605469 C 493.503906 412.671875 492.777344 415.203125 492.777344 418.054688 C 492.777344 421.789062 494.007812 425.980469 496.832031 430.535156 C 496.96875 430.746094 497.136719 430.96875 497.320312 431.136719 C 498.492188 432.355469 499.472656 433.695312 500.210938 435.136719 C 500.324219 435.359375 500.4375 435.542969 500.589844 435.738281 L 500.632812 435.777344 L 503.359375 433.597656 L 501.945312 430.410156 L 501.933594 430.410156 C 501.066406 430.800781 500.378906 431.53125 500.058594 432.4375 C 499.738281 433.347656 499.808594 434.324219 500.242188 435.191406 C 501.261719 437.21875 501.835938 439.414062 501.835938 441.746094 C 501.835938 446.136719 499.863281 450.121094 496.523438 453.140625 C 493.167969 456.128906 488.472656 458.03125 483.214844 458.03125 C 477.960938 458.03125 473.25 456.128906 469.910156 453.140625 C 466.570312 450.121094 464.597656 446.136719 464.597656 441.746094 C 464.597656 439.414062 465.171875 437.21875 466.191406 435.191406 C 466.609375 434.351562 466.679688 433.386719 466.386719 432.507812 C 466.09375 431.628906 465.464844 430.902344 464.640625 430.480469 L 464.625 430.46875 L 463.058594 433.597656 L 465.757812 435.820312 L 465.800781 435.765625 C 465.96875 435.582031 466.109375 435.359375 466.21875 435.136719 C 466.960938 433.683594 467.9375 432.339844 469.113281 431.152344 C 469.28125 430.96875 469.460938 430.746094 469.589844 430.535156 C 472.410156 425.980469 473.65625 421.789062 473.65625 418.054688 C 473.65625 415.203125 472.914062 412.671875 471.839844 410.605469 C 470.203125 407.503906 467.882812 405.40625 465.996094 404.0625 C 464.109375 402.707031 462.613281 402.078125 462.445312 401.996094 C 462.011719 401.8125 461.566406 401.730469 461.105469 401.730469 L 407.402344 401.730469 L 407.402344 346.953125 C 407.402344 346.351562 407.261719 345.777344 406.96875 345.261719 C 406.15625 343.804688 404.664062 341.472656 402.1875 339.390625 C 400.945312 338.339844 399.449219 337.363281 397.671875 336.648438 C 395.898438 335.921875 393.859375 335.488281 391.636719 335.488281 C 387.890625 335.488281 383.710938 336.71875 379.152344 339.542969 C 378.929688 339.667969 378.71875 339.835938 378.539062 340.019531 C 377.335938 341.207031 375.992188 342.183594 374.554688 342.910156 C 374.359375 343.007812 374.148438 343.148438 373.980469 343.273438 L 373.925781 343.316406 L 376.078125 346.070312 L 379.207031 344.503906 C 378.777344 343.667969 378.0625 343.039062 377.167969 342.742188 C 376.289062 342.449219 375.335938 342.519531 374.5 342.941406 C 372.457031 343.972656 370.261719 344.53125 367.941406 344.53125 C 363.554688 344.53125 359.554688 342.578125 356.550781 339.222656 C 353.558594 335.882812 351.644531 331.183594 351.644531 325.914062 C 351.644531 320.671875 353.558594 315.964844 356.550781 312.621094 C 359.554688 309.269531 363.554688 307.3125 367.941406 307.296875 C 370.261719 307.3125 372.457031 307.871094 374.5 308.90625 C 375.421875 309.367188 376.496094 309.40625 377.449219 308.988281 C 378.398438 308.582031 379.125 307.785156 379.417969 306.792969 L 379.433594 306.765625 L 376.078125 305.773438 L 373.839844 308.457031 L 373.910156 308.511719 C 374.09375 308.667969 374.316406 308.820312 374.554688 308.933594 C 375.992188 309.660156 377.335938 310.636719 378.539062 311.824219 C 378.71875 311.992188 378.929688 312.175781 379.152344 312.300781 C 383.710938 315.125 387.890625 316.355469 391.621094 316.355469 C 393.859375 316.355469 395.898438 315.90625 397.671875 315.195312 C 400.328125 314.117188 402.355469 312.453125 403.867188 310.859375 C 405.359375 309.253906 406.367188 307.675781 406.96875 306.597656 C 407.261719 306.066406 407.402344 305.492188 407.402344 304.894531 L 407.402344 246.617188 L 403.90625 246.617188 L 403.90625 250.113281 L 403.90625 246.617188 " fill-opacity="1" fill-rule="nonzero"/></g><path fill="#f39f5a" d="M 505.410156 405.125 C 505.410156 405.125 489.503906 411.738281 499.90625 428.550781 C 501.316406 429.992188 502.503906 431.628906 503.414062 433.402344 L 503.457031 433.457031 L 503.441406 433.457031 C 504.699219 435.933594 505.410156 438.6875 505.410156 441.578125 C 505.410156 452.496094 495.53125 461.34375 483.339844 461.34375 C 471.140625 461.34375 461.257812 452.496094 461.257812 441.578125 C 461.257812 438.6875 461.96875 435.933594 463.226562 433.457031 L 463.214844 433.457031 L 463.253906 433.402344 C 464.164062 431.628906 465.351562 429.992188 466.765625 428.550781 C 477.164062 411.738281 461.257812 405.125 461.257812 405.125 L 404.160156 405.125 L 404.160156 462.222656 C 404.160156 462.222656 410.769531 478.128906 427.585938 467.730469 C 429.039062 466.320312 430.660156 465.132812 432.433594 464.238281 L 432.492188 464.179688 L 432.492188 464.195312 C 434.964844 462.9375 437.71875 462.222656 440.613281 462.222656 C 451.527344 462.222656 460.375 472.105469 460.375 484.308594 C 460.375 496.496094 451.527344 506.378906 440.613281 506.378906 C 437.71875 506.378906 434.964844 505.667969 432.492188 504.410156 L 432.492188 504.421875 L 432.433594 504.378906 C 430.660156 503.472656 429.023438 502.285156 427.585938 500.871094 C 410.769531 490.472656 404.160156 506.378906 404.160156 506.378906 L 404.160156 563.476562 L 562.511719 563.476562 L 562.511719 405.125 L 505.410156 405.125 " fill-opacity="1" fill-rule="nonzero"/><g clip-path="url(#17c74dde27)"><path fill="#040505" d="M 505.410156 405.125 L 504.070312 401.898438 C 503.847656 401.996094 501.261719 403.070312 498.535156 405.558594 C 497.164062 406.804688 495.769531 408.425781 494.691406 410.492188 C 493.613281 412.5625 492.875 415.089844 492.886719 417.929688 C 492.875 421.660156 494.117188 425.839844 496.929688 430.398438 C 497.066406 430.605469 497.234375 430.816406 497.417969 431.011719 C 498.589844 432.214844 499.570312 433.542969 500.296875 434.980469 C 500.394531 435.164062 500.535156 435.402344 500.660156 435.554688 L 500.703125 435.609375 L 503.457031 433.457031 L 502.699219 430.046875 L 502.6875 430.046875 C 501.636719 430.285156 500.742188 431 500.28125 431.960938 C 499.820312 432.941406 499.835938 434.074219 500.324219 435.039062 C 501.359375 437.066406 501.917969 439.257812 501.917969 441.578125 C 501.917969 445.96875 499.960938 449.953125 496.621094 452.941406 C 493.28125 455.933594 488.582031 457.847656 483.339844 457.847656 C 478.085938 457.847656 473.390625 455.933594 470.0625 452.941406 C 466.707031 449.953125 464.75 445.96875 464.75 441.578125 C 464.75 439.257812 465.324219 437.066406 466.34375 435.039062 C 466.835938 434.074219 466.847656 432.941406 466.386719 431.960938 C 465.925781 431 465.03125 430.285156 463.984375 430.046875 L 463.96875 430.046875 L 463.214844 433.457031 L 465.996094 435.570312 L 466.039062 435.511719 C 466.164062 435.359375 466.273438 435.164062 466.371094 434.980469 C 467.113281 433.542969 468.078125 432.214844 469.265625 431.011719 C 469.433594 430.816406 469.617188 430.605469 469.742188 430.398438 C 472.550781 425.839844 473.792969 421.660156 473.792969 417.929688 C 473.792969 415.09375 473.066406 412.5625 471.976562 410.492188 C 470.355469 407.390625 468.035156 405.308594 466.148438 403.953125 C 464.261719 402.597656 462.765625 401.96875 462.597656 401.898438 C 462.164062 401.714844 461.71875 401.632812 461.257812 401.632812 L 404.160156 401.632812 C 403.234375 401.632812 402.339844 401.996094 401.683594 402.652344 C 401.027344 403.308594 400.664062 404.203125 400.664062 405.125 L 400.664062 462.222656 C 400.664062 462.699219 400.75 463.148438 400.929688 463.566406 C 401.027344 463.789062 402.089844 466.375 404.59375 469.101562 C 405.835938 470.472656 407.457031 471.867188 409.527344 472.945312 C 411.59375 474.019531 414.125 474.761719 416.960938 474.761719 C 420.695312 474.761719 424.875 473.519531 429.417969 470.707031 C 429.640625 470.582031 429.847656 470.402344 430.03125 470.234375 C 431.246094 469.046875 432.574219 468.082031 434.015625 467.339844 C 434.238281 467.226562 434.460938 467.089844 434.65625 466.921875 L 434.714844 466.878906 L 432.492188 464.179688 L 429.21875 465.410156 L 429.21875 465.425781 C 429.570312 466.363281 430.296875 467.089844 431.21875 467.453125 C 432.15625 467.816406 433.175781 467.757812 434.070312 467.3125 C 436.097656 466.292969 438.292969 465.71875 440.613281 465.71875 C 445 465.71875 448.96875 467.6875 451.976562 471.03125 C 454.96875 474.355469 456.882812 479.054688 456.882812 484.308594 C 456.882812 489.550781 454.96875 494.246094 451.976562 497.585938 C 448.972656 500.929688 445 502.886719 440.613281 502.886719 C 438.292969 502.886719 436.097656 502.324219 434.070312 501.292969 C 433.148438 500.832031 432.070312 500.789062 431.105469 501.207031 C 430.15625 501.613281 429.445312 502.410156 429.152344 503.402344 L 429.136719 503.429688 L 432.492188 504.421875 L 434.714844 501.738281 L 434.65625 501.683594 C 434.460938 501.527344 434.238281 501.375 434.015625 501.261719 C 432.574219 500.535156 431.246094 499.558594 430.046875 498.382812 C 429.863281 498.203125 429.640625 498.035156 429.417969 497.894531 C 424.875 495.085938 420.695312 493.839844 416.960938 493.839844 C 414.125 493.839844 411.59375 494.582031 409.527344 495.660156 C 406.421875 497.28125 404.339844 499.613281 402.984375 501.488281 C 401.628906 503.375 401 504.871094 400.929688 505.039062 C 400.75 505.472656 400.664062 505.917969 400.664062 506.378906 L 400.664062 563.476562 C 400.664062 564.398438 401.027344 565.308594 401.683594 565.953125 C 402.339844 566.609375 403.234375 566.972656 404.160156 566.972656 L 562.511719 566.972656 C 563.433594 566.972656 564.339844 566.609375 564.984375 565.953125 C 565.640625 565.308594 566.003906 564.398438 566.003906 563.476562 L 566.003906 405.125 C 566.003906 404.203125 565.640625 403.308594 564.984375 402.652344 C 564.339844 401.996094 563.433594 401.632812 562.511719 401.632812 L 505.410156 401.632812 C 504.949219 401.632812 504.503906 401.714844 504.070312 401.898438 L 505.410156 405.125 L 505.410156 408.621094 L 559.015625 408.621094 L 559.015625 559.984375 L 407.652344 559.984375 L 407.652344 506.378906 L 404.160156 506.378906 L 407.386719 507.722656 L 406.058594 507.175781 L 407.375 507.75 L 407.386719 507.722656 L 406.058594 507.175781 L 407.375 507.75 C 407.386719 507.707031 408.253906 505.777344 409.902344 504.058594 C 410.714844 503.191406 411.71875 502.382812 412.878906 501.792969 C 414.027344 501.222656 415.339844 500.84375 416.960938 500.832031 C 419.15625 500.84375 422.023438 501.542969 425.753906 503.835938 L 427.585938 500.871094 L 425.140625 503.359375 C 426.832031 505.023438 428.746094 506.421875 430.839844 507.496094 L 432.433594 504.378906 L 430.199219 507.0625 L 430.253906 507.121094 C 431.148438 507.859375 432.378906 508.113281 433.496094 507.761719 C 434.617188 507.425781 435.496094 506.546875 435.832031 505.429688 L 435.832031 505.414062 L 432.492188 504.410156 L 430.910156 507.523438 C 433.847656 509.007812 437.132812 509.875 440.613281 509.875 C 447.140625 509.886719 453.039062 506.894531 457.191406 502.242188 C 461.339844 497.585938 463.855469 491.242188 463.871094 484.308594 C 463.855469 477.363281 461.339844 471.015625 457.191406 466.363281 C 453.039062 461.722656 447.140625 458.730469 440.613281 458.730469 C 437.132812 458.730469 433.847656 459.597656 430.910156 461.078125 L 432.492188 464.195312 L 435.761719 462.964844 L 435.761719 462.949219 C 435.355469 461.886719 434.476562 461.09375 433.386719 460.796875 C 432.296875 460.519531 431.121094 460.769531 430.253906 461.496094 L 430.199219 461.539062 L 432.433594 464.238281 L 430.839844 461.121094 C 428.746094 462.195312 426.832031 463.59375 425.140625 465.242188 L 427.585938 467.730469 L 425.753906 464.769531 C 422.007812 467.058594 419.140625 467.757812 416.960938 467.773438 C 415.285156 467.757812 413.941406 467.367188 412.753906 466.753906 C 410.992188 465.832031 409.582031 464.347656 408.660156 463.046875 C 408.199219 462.40625 407.863281 461.820312 407.652344 461.414062 C 407.542969 461.21875 407.457031 461.0625 407.414062 460.964844 L 407.375 460.867188 L 405.570312 461.636719 L 407.386719 460.882812 L 407.375 460.867188 L 405.570312 461.636719 L 407.386719 460.882812 L 404.160156 462.222656 L 407.652344 462.222656 L 407.652344 408.621094 L 461.257812 408.621094 L 461.257812 405.125 L 459.914062 408.355469 L 460.472656 407.011719 L 459.902344 408.339844 L 459.914062 408.355469 L 460.472656 407.011719 L 459.902344 408.339844 C 459.929688 408.355469 461.859375 409.222656 463.578125 410.871094 C 464.445312 411.679688 465.269531 412.6875 465.839844 413.847656 C 466.414062 414.992188 466.792969 416.308594 466.804688 417.929688 C 466.792969 420.109375 466.09375 422.988281 463.800781 426.722656 L 466.765625 428.550781 L 464.277344 426.105469 C 462.625 427.796875 461.214844 429.710938 460.152344 431.808594 L 463.253906 433.402344 L 460.472656 431.277344 L 460.433594 431.347656 C 459.71875 432.285156 459.523438 433.542969 459.929688 434.660156 C 460.347656 435.777344 461.300781 436.601562 462.460938 436.867188 L 462.472656 436.867188 L 463.226562 433.457031 L 460.109375 431.878906 C 458.628906 434.8125 457.761719 438.113281 457.761719 441.578125 C 457.761719 448.121094 460.738281 454.003906 465.394531 458.15625 C 470.050781 462.320312 476.394531 464.835938 483.339844 464.835938 C 490.273438 464.835938 496.621094 462.320312 501.273438 458.15625 C 505.929688 454.003906 508.90625 448.121094 508.90625 441.578125 C 508.90625 438.113281 508.054688 434.8125 506.558594 431.878906 L 503.441406 433.457031 L 504.195312 436.867188 L 504.210938 436.867188 C 505.382812 436.601562 506.347656 435.765625 506.753906 434.632812 C 507.144531 433.5 506.949219 432.242188 506.207031 431.292969 L 506.152344 431.234375 L 503.414062 433.402344 L 506.53125 431.808594 C 505.453125 429.710938 504.054688 427.796875 502.394531 426.105469 L 499.90625 428.550781 L 502.882812 426.722656 C 500.574219 422.988281 499.878906 420.109375 499.878906 417.929688 C 499.878906 416.25 500.269531 414.925781 500.882812 413.722656 C 501.804688 411.960938 503.289062 410.550781 504.585938 409.625 C 505.230469 409.164062 505.816406 408.828125 506.222656 408.621094 C 506.417969 408.507812 506.574219 408.425781 506.671875 408.382812 L 506.769531 408.339844 L 506.027344 406.578125 L 506.753906 408.355469 L 506.769531 408.339844 L 506.027344 406.578125 L 506.753906 408.355469 L 505.414062 405.125 L 505.414062 408.621094 L 505.414062 405.125 " fill-opacity="1" fill-rule="nonzero"/></g><path fill="#720455" d="M 304.570312 404.886719 C 304.570312 404.886719 320.476562 398.261719 310.074219 381.449219 C 308.664062 379.996094 307.476562 378.371094 306.566406 376.597656 L 306.523438 376.542969 L 306.539062 376.542969 C 305.28125 374.054688 304.570312 371.3125 304.570312 368.421875 C 304.570312 357.503906 314.449219 348.671875 326.640625 348.671875 C 338.839844 348.671875 348.722656 357.503906 348.722656 368.421875 C 348.722656 371.3125 348.011719 374.054688 346.753906 376.542969 L 346.710938 376.597656 C 345.816406 378.371094 344.628906 379.992188 343.214844 381.449219 C 332.816406 398.261719 348.722656 404.886719 348.722656 404.886719 L 405.820312 404.886719 L 405.820312 347.777344 C 405.820312 347.777344 399.210938 331.871094 382.394531 342.253906 C 380.941406 343.679688 379.320312 344.867188 377.546875 345.777344 L 377.488281 345.820312 L 377.488281 345.804688 C 375 347.050781 372.261719 347.777344 369.367188 347.777344 C 358.453125 347.777344 349.605469 337.894531 349.605469 325.691406 C 349.605469 313.503906 358.453125 303.621094 369.367188 303.621094 C 372.261719 303.621094 375 304.332031 377.488281 305.589844 L 377.488281 305.578125 L 377.546875 305.621094 C 379.320312 306.515625 380.941406 307.714844 382.394531 309.128906 C 399.210938 319.527344 405.820312 303.621094 405.820312 303.621094 L 405.820312 246.515625 L 247.457031 246.515625 L 247.457031 404.882812 L 304.570312 404.882812 " fill-opacity="1" fill-rule="nonzero"/><g clip-path="url(#67678884b4)"><path fill="#040505" d="M 304.570312 404.886719 L 305.910156 408.101562 C 306.132812 408.003906 308.71875 406.929688 311.445312 404.441406 C 312.800781 403.195312 314.214844 401.574219 315.289062 399.507812 C 316.367188 397.4375 317.105469 394.910156 317.09375 392.070312 C 317.105469 388.339844 315.863281 384.160156 313.054688 379.601562 C 312.914062 379.394531 312.746094 379.167969 312.5625 379 C 311.390625 377.785156 310.410156 376.457031 309.683594 375.019531 C 309.585938 374.835938 309.445312 374.613281 309.320312 374.445312 L 309.265625 374.390625 L 306.523438 376.542969 L 307.28125 379.953125 L 307.292969 379.953125 C 308.34375 379.730469 309.238281 379 309.683594 378.039062 C 310.144531 377.058594 310.144531 375.925781 309.65625 374.960938 C 308.621094 372.933594 308.0625 370.742188 308.0625 368.421875 C 308.0625 364.03125 310.019531 360.0625 313.359375 357.058594 C 316.699219 354.066406 321.398438 352.152344 326.640625 352.164062 C 331.894531 352.152344 336.589844 354.066406 339.917969 357.058594 C 343.257812 360.0625 345.230469 364.03125 345.230469 368.421875 C 345.230469 370.742188 344.65625 372.933594 343.636719 374.960938 C 343.148438 375.925781 343.132812 377.058594 343.59375 378.039062 C 344.054688 379 344.949219 379.730469 345.984375 379.953125 L 346.011719 379.953125 L 346.753906 376.542969 L 343.984375 374.429688 L 343.929688 374.488281 C 343.816406 374.65625 343.707031 374.835938 343.609375 375.003906 C 342.867188 376.457031 341.902344 377.785156 340.714844 379 C 340.53125 379.167969 340.363281 379.394531 340.238281 379.601562 C 337.414062 384.160156 336.1875 388.339844 336.1875 392.070312 C 336.1875 394.90625 336.914062 397.4375 337.988281 399.507812 C 339.625 402.609375 341.945312 404.707031 343.832031 406.046875 C 345.71875 407.402344 347.199219 408.03125 347.382812 408.101562 C 347.800781 408.285156 348.25 408.382812 348.722656 408.382812 L 405.820312 408.382812 C 406.746094 408.382812 407.640625 408.003906 408.296875 407.347656 C 408.9375 406.707031 409.316406 405.796875 409.316406 404.886719 L 409.316406 347.777344 C 409.316406 347.316406 409.234375 346.867188 409.050781 346.433594 C 408.953125 346.210938 407.875 343.625 405.390625 340.898438 C 404.144531 339.527344 402.523438 338.132812 400.441406 337.054688 C 398.386719 335.964844 395.855469 335.238281 393.003906 335.25 C 389.285156 335.238281 385.09375 336.46875 380.550781 339.292969 C 380.339844 339.417969 380.117188 339.585938 379.933594 339.765625 C 378.734375 340.953125 377.40625 341.917969 375.953125 342.660156 C 375.769531 342.757812 375.5625 342.882812 375.394531 343.023438 L 375.335938 343.066406 L 377.488281 345.820312 L 380.761719 344.589844 L 380.761719 344.574219 C 380.410156 343.636719 379.683594 342.910156 378.761719 342.546875 C 377.824219 342.183594 376.804688 342.242188 375.910156 342.6875 C 373.871094 343.707031 371.6875 344.28125 369.367188 344.28125 C 364.980469 344.28125 360.996094 342.324219 357.992188 338.984375 C 355.011719 335.644531 353.097656 330.945312 353.097656 325.691406 C 353.097656 320.449219 355.011719 315.753906 357.992188 312.414062 C 360.996094 309.070312 364.980469 307.113281 369.367188 307.113281 C 371.6875 307.113281 373.882812 307.675781 375.910156 308.707031 C 376.804688 309.15625 377.824219 309.210938 378.761719 308.835938 C 379.683594 308.484375 380.410156 307.742188 380.761719 306.820312 L 380.761719 306.808594 L 377.488281 305.578125 L 375.265625 308.261719 L 375.308594 308.316406 C 375.503906 308.472656 375.726562 308.625 375.964844 308.738281 C 377.40625 309.464844 378.734375 310.441406 379.933594 311.617188 C 380.117188 311.796875 380.339844 311.964844 380.550781 312.105469 C 385.105469 314.914062 389.285156 316.160156 393.003906 316.144531 C 395.855469 316.160156 398.386719 315.417969 400.441406 314.339844 C 403.558594 312.707031 405.640625 310.386719 406.996094 308.511719 C 408.351562 306.625 408.980469 305.128906 409.050781 304.960938 C 409.234375 304.527344 409.316406 304.082031 409.316406 303.621094 L 409.316406 246.515625 C 409.316406 245.59375 408.9375 244.691406 408.296875 244.042969 C 407.640625 243.390625 406.746094 243.019531 405.820312 243.019531 L 247.457031 243.019531 C 246.539062 243.019531 245.640625 243.390625 244.992188 244.042969 C 244.339844 244.691406 243.964844 245.59375 243.964844 246.515625 L 243.964844 404.882812 C 243.964844 405.789062 244.339844 406.699219 244.992188 407.339844 C 245.640625 408 246.539062 408.375 247.457031 408.375 L 304.570312 408.375 C 305.03125 408.375 305.476562 408.277344 305.910156 408.097656 L 304.570312 404.882812 L 304.570312 401.371094 L 250.949219 401.371094 L 250.949219 249.996094 L 402.328125 249.996094 L 402.328125 303.613281 L 405.820312 303.613281 L 402.59375 302.273438 L 403.933594 302.816406 L 402.605469 302.242188 L 402.59375 302.273438 L 403.933594 302.816406 L 402.605469 302.242188 C 402.59375 302.285156 401.726562 304.214844 400.078125 305.933594 C 399.265625 306.800781 398.261719 307.609375 397.101562 308.199219 C 395.941406 308.769531 394.640625 309.148438 393.003906 309.148438 C 390.824219 309.148438 387.957031 308.449219 384.226562 306.15625 L 382.394531 309.121094 L 384.839844 306.632812 C 383.152344 304.96875 381.234375 303.570312 379.125 302.496094 L 377.546875 305.613281 L 379.78125 302.929688 L 379.726562 302.871094 C 378.84375 302.160156 377.683594 301.894531 376.59375 302.1875 C 375.503906 302.480469 374.609375 303.277344 374.21875 304.339844 L 374.21875 304.355469 L 377.488281 305.585938 L 379.054688 302.46875 C 376.132812 300.984375 372.835938 300.121094 369.367188 300.121094 C 362.828125 300.121094 356.941406 303.097656 352.792969 307.75 C 348.625 312.40625 346.109375 318.738281 346.109375 325.683594 C 346.109375 332.632812 348.625 338.976562 352.792969 343.632812 C 356.941406 348.285156 362.828125 351.261719 369.367188 351.261719 C 372.835938 351.261719 376.132812 350.398438 379.054688 348.914062 L 377.488281 345.796875 L 374.21875 347.027344 L 374.21875 347.042969 C 374.609375 348.078125 375.476562 348.875 376.539062 349.167969 C 377.617188 349.472656 378.761719 349.25 379.640625 348.566406 L 379.699219 348.523438 L 377.546875 345.769531 L 379.140625 348.875 C 381.234375 347.796875 383.152344 346.414062 384.839844 344.75 L 382.394531 342.246094 L 384.226562 345.226562 C 387.957031 342.933594 390.824219 342.234375 393.003906 342.234375 C 394.683594 342.234375 396.023438 342.625 397.210938 343.238281 C 398.988281 344.148438 400.398438 345.644531 401.320312 346.945312 C 401.78125 347.585938 402.117188 348.175781 402.328125 348.578125 C 402.441406 348.773438 402.507812 348.929688 402.566406 349.027344 L 402.605469 349.125 L 404.382812 348.371094 L 402.59375 349.109375 L 402.605469 349.125 L 404.382812 348.371094 L 402.59375 349.109375 L 405.820312 347.769531 L 402.328125 347.769531 L 402.328125 401.371094 L 348.722656 401.371094 L 348.722656 404.882812 L 350.066406 401.652344 L 349.507812 402.980469 L 350.078125 401.652344 L 350.066406 401.652344 L 349.507812 402.980469 L 350.078125 401.652344 C 350.050781 401.652344 348.121094 400.773438 346.390625 399.121094 C 345.535156 398.3125 344.710938 397.304688 344.140625 396.160156 C 343.550781 395 343.1875 393.683594 343.175781 392.0625 C 343.175781 389.882812 343.875 387.003906 346.179688 383.273438 L 343.214844 381.441406 L 345.703125 383.886719 C 347.355469 382.195312 348.75 380.28125 349.828125 378.183594 L 346.710938 376.589844 L 349.507812 378.714844 L 349.546875 378.660156 C 350.261719 377.707031 350.457031 376.449219 350.050781 375.332031 C 349.632812 374.214844 348.683594 373.375 347.523438 373.125 L 347.507812 373.125 L 346.753906 376.535156 L 349.871094 378.113281 C 351.351562 375.179688 352.21875 371.878906 352.21875 368.414062 C 352.21875 361.871094 349.226562 355.988281 344.585938 351.835938 C 339.933594 347.671875 333.585938 345.167969 326.640625 345.167969 C 319.691406 345.167969 313.359375 347.671875 308.707031 351.835938 C 304.050781 355.988281 301.058594 361.871094 301.074219 368.414062 C 301.074219 371.878906 301.925781 375.179688 303.421875 378.113281 L 306.539062 376.535156 L 305.769531 373.125 C 304.597656 373.390625 303.632812 374.226562 303.226562 375.359375 C 302.820312 376.492188 303.03125 377.75 303.773438 378.703125 L 303.828125 378.757812 L 306.566406 376.589844 L 303.449219 378.183594 C 304.527344 380.28125 305.925781 382.195312 307.585938 383.886719 L 310.074219 381.441406 L 307.097656 383.273438 C 309.40625 387.003906 310.105469 389.882812 310.105469 392.0625 C 310.105469 393.742188 309.699219 395.082031 309.097656 396.269531 C 308.175781 398.03125 306.679688 399.445312 305.394531 400.367188 C 304.75 400.828125 304.164062 401.164062 303.757812 401.386719 C 303.546875 401.484375 303.394531 401.554688 303.3125 401.609375 L 303.210938 401.652344 L 303.199219 401.652344 L 303.96875 403.425781 L 303.226562 401.652344 L 303.199219 401.652344 L 303.96875 403.425781 L 303.226562 401.652344 L 304.570312 404.882812 L 304.570312 401.371094 L 304.570312 404.882812 " fill-opacity="1" fill-rule="nonzero"/></g></svg>